<svg width="628" height="360" viewBox="0 0 628 360" fill="none" xmlns="http://www.w3.org/2000/svg">
<path d="M72.4334 152.104C72.4334 152.104 51.4289 153.981 51.5447 170.589C51.6285 182.798 74.5534 183.234 101.954 184.823C120.958 185.928 230.616 187.861 253.653 175.704C273.096 165.439 270.677 137.595 220.148 136.038C217.149 135.946 247.848 89.9529 167.143 79.5564C110.642 72.2782 104.13 111.005 104.13 111.005C104.13 111.005 74.0943 108.035 64.0851 129.095C56.5552 144.942 72.4334 152.104 72.4334 152.104Z" fill="#F1F2F2"/>
<path d="M112.282 83.3174C112.282 83.3174 106.501 84.0879 106.569 91.3303C106.621 96.6523 112.937 96.8919 120.487 97.6465C125.725 98.1695 155.94 99.2554 162.256 94.0093C167.59 89.5776 166.86 77.4364 152.938 76.6459C152.112 76.598 160.468 56.6196 138.21 51.9085C122.627 48.6107 120.918 65.4749 120.918 65.4749C120.918 65.4749 112.638 64.1135 109.927 73.2723C107.887 80.1633 112.278 83.3174 112.278 83.3174H112.282Z" fill="#D1D3D4"/>
<path d="M251.249 161.774C244.622 161.774 239.779 159.873 236.78 156.081C226.248 142.746 242.837 111.153 243.548 109.816L245.604 110.909C245.436 111.225 229.015 142.494 238.609 154.635C242.769 159.901 251.461 160.86 264.444 157.478L265.031 159.734C259.809 161.095 255.21 161.774 251.245 161.774L251.249 161.774Z" fill="#28495C"/>
<path d="M235.551 92.6717C237.731 95.7299 248.65 96.3768 251.86 93.4742C255.074 90.5717 251.641 86.8227 257.022 78.0831C262.404 69.3436 267.974 70.9645 268.405 53.2977C268.808 36.7329 254.479 30.5006 242.785 30.5126C234.984 30.5206 218.052 36.126 217.916 55.813C217.84 66.6407 226.923 71.791 232.281 78.4145C237.431 84.7825 233.091 89.2262 235.551 92.6797V92.6717Z" fill="#FFD83B"/>
<path d="M234.828 94.684C234.828 94.9514 245.887 97.9818 252.914 95.1351C252.914 95.1351 254.667 110.518 248.45 111.983C242.234 113.449 236.213 112.163 235.615 109.145C235.016 106.126 234.832 94.684 234.832 94.684H234.828Z" fill="#D1D3D4"/>
<path d="M253.908 57.7973C252.139 58.4401 250.271 63.263 248.949 67.7386C246.953 67.6348 245.568 66.6486 244.614 65.2992C249.864 59.7416 250.467 49.928 249.021 45.5084C248.219 43.057 247.017 42.8214 246.366 42.9013C243.057 43.3005 240.853 50.998 241.092 57.6136C241.204 60.6719 241.791 63.1911 242.801 65.0916C242.214 65.6026 241.579 66.0617 240.881 66.453C240.745 66.5289 240.605 66.5927 240.469 66.6446C239.819 59.8574 238.633 54.0004 236.513 52.0401C235.834 51.4133 235.068 51.1458 234.245 51.2416C232.952 51.3973 232.017 52.2677 231.614 53.701C230.572 57.406 233.147 64.3929 236.529 67.0519C237.403 67.7426 238.297 68.1298 239.18 68.2177C239.946 77.6559 239.835 88.9467 239.607 94.7957C239.839 94.8516 240.074 94.9035 240.314 94.9514L241.02 94.9794C241.056 94.0371 241.587 79.9995 240.593 68.0979C240.925 68.0061 241.252 67.8703 241.571 67.6907C242.286 67.2874 242.949 66.8243 243.56 66.3013C244.805 67.9702 246.49 68.9483 248.546 69.1399C248.239 70.2538 247.971 71.3159 247.756 72.2461C246.786 76.4263 244.701 86.9824 246.143 95.2908C246.626 95.2549 247.097 95.2029 247.556 95.1351C246.55 89.4498 247.125 81.2372 249.137 72.5655C249.429 71.3079 249.732 70.1261 250.039 69.0282C252.531 68.3095 254.263 65.0237 254.783 63.9178C255.729 61.9016 256.487 59.1707 255.517 58.1047C255.334 57.9051 254.81 57.4739 253.9 57.8053L253.908 57.7973ZM237.411 65.926C234.445 63.5944 232.085 57.2782 232.987 54.0763C233.355 52.7707 234.157 52.6749 234.421 52.643C234.477 52.635 234.529 52.635 234.585 52.635C234.924 52.635 235.235 52.7787 235.559 53.0781C237.375 54.755 238.449 60.1888 239.064 66.7524C238.529 66.6446 237.978 66.3691 237.419 65.93L237.411 65.926ZM243.879 64.0216C242.833 61.8057 242.569 59.1268 242.514 57.5577C242.278 51.01 244.582 44.5422 246.538 44.3066C246.546 44.3066 246.558 44.3066 246.566 44.3066C246.845 44.3066 247.305 44.8137 247.672 45.9475C248.994 49.988 248.498 58.8633 243.879 64.0216ZM253.222 63.8818C252.559 65.1514 251.612 66.465 250.59 67.1836C252.12 62.2529 253.657 59.3983 254.395 59.1308C254.443 59.1148 254.479 59.1028 254.507 59.0988C254.719 59.546 254.475 61.4943 253.226 63.8818H253.222Z" fill="white"/>
<path d="M245.883 103.168C237.826 103.112 232.788 100.553 232.516 100.413C232.169 100.234 232.033 99.8024 232.213 99.455C232.393 99.1077 232.82 98.9719 233.167 99.1516C233.251 99.1955 241.543 103.38 253.677 101.008C254.06 100.932 254.435 101.184 254.507 101.567C254.583 101.95 254.331 102.326 253.948 102.397C251.018 102.972 248.311 103.18 245.879 103.164L245.883 103.168Z" fill="#28495C"/>
<path d="M246.626 108.294C238.924 108.239 233.918 106.697 233.65 106.614C233.275 106.498 233.067 106.099 233.187 105.723C233.307 105.348 233.706 105.144 234.078 105.26C234.157 105.284 242.346 107.799 253.697 106.498C254.084 106.454 254.439 106.733 254.483 107.121C254.527 107.512 254.248 107.863 253.86 107.907C251.261 108.207 248.834 108.31 246.63 108.294H246.626Z" fill="#28495C"/>
<path d="M366.92 163.127C366.92 163.127 343.663 165.67 343.859 188.939C344.003 206.043 369.395 206.745 399.75 209.085C420.802 210.71 542.262 213.868 567.726 196.928C589.222 182.631 586.427 143.608 530.456 141.22C527.134 141.081 560.947 76.7737 471.523 61.8816C408.917 51.4532 401.862 105.679 401.862 105.679C401.862 105.679 368.581 101.399 357.581 130.86C349.305 153.026 366.924 163.123 366.924 163.123L366.92 163.127Z" fill="#F1F2F2"/>
<g style="mix-blend-mode:multiply">
<ellipse cx="319.221" cy="317.214" rx="289.671" ry="35.0182" fill="#F1F2F2"/>
</g>
<path d="M1.61858 132.413C4.42531 132.581 7.1961 132.425 9.97088 131.982C11.3124 131.77 10.7454 129.726 9.40794 129.938C6.8208 130.349 4.22967 130.449 1.61858 130.293C0.257142 130.209 0.261135 132.329 1.61858 132.413Z" fill="#28495C"/>
<path d="M22.5792 222.727C20.5071 220.99 18.1715 219.122 17.2652 216.475C16.7901 215.081 16.7023 213.429 17.4528 212.107C18.0357 211.089 19.0658 210.41 19.6886 209.416C20.7187 207.767 20.3993 205.855 19.1297 204.43C17.4129 202.497 14.6142 202.218 12.9413 200.277C11.9672 199.148 10.3382 200.788 11.3044 201.914C12.9573 203.831 15.7999 204.07 17.369 205.967C18.8302 207.735 16.9578 208.901 15.9397 210.231C15.3568 210.993 14.9495 211.852 14.7419 212.79C13.66 217.717 17.5207 221.502 20.9343 224.364C22.0682 225.314 23.7131 223.685 22.5712 222.727H22.5792Z" fill="#28495C"/>
<path d="M61.2344 67.1797H61.2185C57.1581 67.1717 52.8182 64.0855 52.7664 58.3762C52.7424 55.8889 53.5888 53.705 55.2138 52.0681C56.7988 50.4671 58.9907 49.5488 61.2224 49.5488C63.7896 49.5488 66.0853 50.503 67.6982 52.2358C69.3512 54.0124 70.1577 56.4239 69.966 59.023C69.5508 64.6604 65.2828 67.1837 61.2384 67.1837L61.2344 67.1797ZM61.2224 51.6648C59.5735 51.6648 57.8927 52.3715 56.7189 53.5573C55.5012 54.787 54.8664 56.4439 54.8864 58.3563C54.9303 63.271 58.7032 65.0597 61.2264 65.0637L61.2384 66.1217V65.0637C64.081 65.0637 67.5186 63.4427 67.854 58.8673C68.0017 56.8631 67.3949 55.0226 66.1492 53.6771C64.9275 52.3596 63.2227 51.6649 61.2264 51.6649L61.2224 51.6648Z" fill="#28495C"/>
<path d="M62.1408 53.6131V41.995C62.1408 40.6336 60.0208 40.6296 60.0208 41.995V53.6131C60.0208 54.9746 62.1408 54.9786 62.1408 53.6131Z" fill="#28495C"/>
<path d="M65.734 59.015C70.1257 58.6277 74.5255 58.436 78.9332 58.448C80.2946 58.448 80.2986 56.332 78.9332 56.328C74.5255 56.32 70.1257 56.5076 65.734 56.895C64.3885 57.0147 64.3725 59.1348 65.734 59.015Z" fill="#28495C"/>
<path d="M60.3442 63.8818C59.0785 69.0002 58.8669 74.1824 59.6574 79.3886C59.861 80.7301 61.9012 80.1632 61.7016 78.8257C60.9709 74.0068 61.2225 69.1718 62.3883 64.4448C62.7157 63.1232 60.6715 62.5563 60.3442 63.8818Z" fill="#28495C"/>
<path d="M56.3157 57.6456C52.1834 57.414 48.0672 57.5218 43.9509 57.973C42.6095 58.1206 42.5935 60.2407 43.9509 60.093C48.0632 59.6418 52.1834 59.534 56.3157 59.7656C57.6771 59.8415 57.6731 57.7254 56.3157 57.6456Z" fill="#28495C"/>
<path d="M616.67 249.621C618.403 254.348 620.69 258.799 623.565 262.932C623.949 262.437 624.328 261.938 624.711 261.443C620.962 259.889 617.241 258.268 613.544 256.588C612.366 256.049 611.332 257.797 612.522 258.34C616.375 260.097 620.259 261.782 624.172 263.403C624.982 263.738 625.797 262.604 625.318 261.914C622.547 257.925 620.299 253.645 618.626 249.086C618.179 247.872 616.219 248.395 616.67 249.625V249.621Z" fill="#28495C"/>
<path d="M168.01 15.1376C163.059 16.0558 158.304 17.6049 153.745 19.7409L155.134 21.1303C157.342 17.6209 159.61 14.1474 161.937 10.7179C162.672 9.63592 160.915 8.61783 160.184 9.69581C157.857 13.1294 155.589 16.5988 153.381 20.1082C152.798 21.0345 153.912 21.8969 154.771 21.4976C159.17 19.4375 163.778 17.9802 168.553 17.0979C169.834 16.8623 169.291 14.906 168.014 15.1416L168.01 15.1376Z" fill="#28495C"/>
<path d="M387.006 35.5911C391.006 36.6691 394.907 38.0305 398.692 39.7074C399.874 40.2304 400.908 38.4857 399.714 37.9547C395.766 36.206 391.713 34.7567 387.541 33.6308C386.279 33.2914 385.74 35.2478 387.002 35.5871L387.006 35.5911Z" fill="#28495C"/>
<path d="M394.743 31.0317C392.783 35.0202 390.823 39.0087 388.862 42.9972C388.288 44.163 390.036 45.1931 390.615 44.0192C392.575 40.0307 394.536 36.0423 396.496 32.0537C397.071 30.8879 395.322 29.8579 394.743 31.0317Z" fill="#28495C"/>
<path d="M624.615 123.154C621.322 120.927 616.526 122.208 614.989 125.937C613.384 129.826 613.384 135.591 618.347 136.729C622.787 137.747 626.184 134.066 627.486 130.209C628.233 127.993 628.364 125.578 626.516 123.877C624.516 122.037 621.629 122.164 619.273 121.086C618.096 120.547 617.062 122.296 618.251 122.839C621.07 124.129 626.767 123.941 625.885 128.437C625.334 131.247 623.354 134.541 620.244 134.837C612.65 135.555 616.391 120.032 623.593 124.907C624.675 125.642 625.693 123.885 624.615 123.154Z" fill="#28495C"/>
<path d="M232.537 17.9882C230.325 15.4011 228.113 12.8139 225.905 10.2308C224.979 9.14484 223.418 10.7179 224.34 11.7958C226.552 14.383 228.764 16.9701 230.971 19.5533C231.898 20.6392 233.459 19.0662 232.537 17.9882Z" fill="#28495C"/>
<path d="M245.424 17.9483C244.885 12.3268 244.558 6.68145 244.015 1.06002C243.879 -0.345342 241.663 -0.361312 241.799 1.06002C242.338 6.68145 242.665 12.3268 243.208 17.9483C243.344 19.3536 245.56 19.3696 245.424 17.9483Z" fill="#28495C"/>
<path d="M256.487 19.0022C259.438 15.421 261.885 11.5283 263.782 7.28825C264.36 5.99867 262.452 4.86879 261.869 6.17035C260.053 10.2267 257.749 13.9996 254.922 17.4332C254.024 18.5271 255.581 20.1002 256.487 18.9982V19.0022Z" fill="#28495C"/>
<path d="M586.587 66.6766C586.587 66.6766 578.626 67.2276 569.898 71.9267C569.898 71.9267 552.878 64.3091 545.336 65.0437C545.336 65.0437 559.653 72.4777 569.515 80.9418C569.515 80.9418 577.863 71.5914 586.587 66.6766Z" fill="#28495C"/>
<path d="M555.569 99.8862C555.569 99.8862 548.933 100.345 541.663 104.262C541.663 104.262 527.482 97.9179 521.198 98.5287C521.198 98.5287 533.127 104.721 541.344 111.776C541.344 111.776 548.299 103.987 555.569 99.8902V99.8862Z" fill="#28495C"/>
<path d="M529.219 109.48C529.219 109.48 524.392 109.815 519.102 112.662C519.102 112.662 508.785 108.047 504.213 108.49C504.213 108.49 512.889 112.993 518.87 118.124C518.87 118.124 523.928 112.458 529.215 109.476L529.219 109.48Z" fill="#28495C"/>
<path d="M576.397 109.824C576.397 109.824 572.964 110.063 569.203 112.087C569.203 112.087 561.865 108.805 558.615 109.121C558.615 109.121 564.787 112.327 569.039 115.976C569.039 115.976 572.637 111.944 576.397 109.828V109.824Z" fill="#28495C"/>
<path d="M524.595 84.8903C524.595 84.8903 521.161 85.1299 517.4 87.154C517.4 87.154 510.062 83.8722 506.812 84.1876C506.812 84.1876 512.985 87.3936 517.237 91.0428C517.237 91.0428 520.834 87.0103 524.595 84.8943V84.8903Z" fill="#28495C"/>
<path d="M185.581 249.908C186.647 233.75 207.942 124.724 207.942 124.724L182.806 122.1C176.526 134.769 161.262 245.357 161.262 245.357C165.83 246.143 185.577 249.908 185.577 249.908H185.581ZM195.386 132.748C195.083 135.423 192.939 136.438 191.258 136.262C189.397 136.07 187.693 134.745 187.768 132.245C187.84 129.962 189.593 128.193 192.072 128.453C193.861 128.64 195.674 130.229 195.386 132.744V132.748Z" fill="#FFAB3B"/>
<path d="M204.222 144.666C204.186 144.666 204.146 144.666 204.11 144.658C204.05 144.646 197.949 143.636 194.372 143.636C194.356 143.636 194.344 143.636 194.324 143.636C193.949 143.636 193.641 143.333 193.641 142.953C193.641 142.562 193.981 142.271 194.372 142.267C198.065 142.267 204.082 143.265 204.337 143.309C204.709 143.373 204.96 143.724 204.9 144.095C204.844 144.431 204.553 144.666 204.226 144.666H204.222Z" fill="#28495C"/>
<path d="M202.565 153.33C202.513 153.33 202.461 153.326 202.405 153.31C199.243 152.563 192.931 151.114 191.673 150.982C191.298 150.942 191.026 150.607 191.066 150.232C191.106 149.856 191.434 149.577 191.817 149.625C193.478 149.8 202.345 151.892 202.724 151.984C203.092 152.072 203.319 152.439 203.231 152.807C203.156 153.122 202.876 153.334 202.569 153.334L202.565 153.33Z" fill="#28495C"/>
<path d="M200.796 162.624C200.752 162.624 200.704 162.62 200.66 162.612L190.603 160.58C190.232 160.504 189.992 160.145 190.068 159.774C190.144 159.402 190.499 159.163 190.875 159.239L200.932 161.271C201.303 161.347 201.543 161.706 201.467 162.077C201.403 162.401 201.115 162.624 200.796 162.624Z" fill="#28495C"/>
<path d="M198.736 172.765C198.736 172.765 193.166 171.587 189.525 170.797C189.158 170.717 188.922 170.354 189.002 169.982C189.082 169.615 189.449 169.384 189.817 169.459C193.45 170.25 199.015 171.428 199.015 171.428L198.732 172.765H198.736Z" fill="#28495C"/>
<path d="M196.827 183.745C196.791 183.745 196.752 183.745 196.716 183.737C196.017 183.621 189.833 182.579 188.22 181.776C187.88 181.609 187.744 181.197 187.912 180.858C188.08 180.519 188.491 180.383 188.831 180.55C190.044 181.157 195.099 182.084 196.943 182.387C197.315 182.447 197.566 182.802 197.506 183.174C197.45 183.509 197.163 183.745 196.832 183.745H196.827Z" fill="#28495C"/>
<path d="M195.438 191.25C195.378 191.25 195.318 191.242 195.254 191.227L185.608 188.563C185.245 188.464 185.03 188.088 185.133 187.721C185.233 187.358 185.608 187.142 185.976 187.246L195.622 189.909C195.985 190.009 196.201 190.384 196.097 190.751C196.013 191.055 195.737 191.254 195.438 191.254V191.25Z" fill="#28495C"/>
<path d="M193.841 199.958C193.809 199.958 193.773 199.958 193.741 199.95C191.721 199.655 186.167 198.904 184.75 199.004C184.379 199.028 184.047 198.744 184.024 198.369C184 197.994 184.283 197.666 184.658 197.642C186.511 197.519 193.637 198.557 193.941 198.601C194.316 198.657 194.572 199.004 194.516 199.375C194.468 199.715 194.172 199.958 193.841 199.958Z" fill="#28495C"/>
<path d="M192.152 209.288C192.104 209.288 192.056 209.285 192.008 209.273C191.701 209.205 184.471 207.648 182.654 206.933C182.303 206.793 182.131 206.398 182.267 206.047C182.407 205.695 182.802 205.524 183.153 205.659C184.866 206.334 192.22 207.919 192.296 207.935C192.663 208.015 192.899 208.378 192.819 208.746C192.751 209.065 192.468 209.285 192.152 209.285V209.288Z" fill="#28495C"/>
<path d="M190.18 220.444C190.14 220.444 190.1 220.444 190.06 220.432C189.777 220.38 183.065 219.174 180.945 218.32C180.594 218.18 180.426 217.781 180.566 217.429C180.706 217.078 181.105 216.91 181.456 217.05C183.449 217.852 190.236 219.074 190.304 219.086C190.675 219.154 190.923 219.509 190.855 219.881C190.795 220.212 190.507 220.444 190.184 220.444H190.18Z" fill="#28495C"/>
<path d="M188.886 227.953C188.842 227.953 188.795 227.949 188.751 227.941C188.703 227.933 183.988 226.963 179.013 225.338C178.654 225.223 178.458 224.835 178.574 224.476C178.69 224.117 179.077 223.925 179.436 224.037C184.335 225.638 188.974 226.592 189.022 226.6C189.393 226.676 189.629 227.035 189.553 227.406C189.485 227.73 189.202 227.953 188.882 227.953H188.886Z" fill="#28495C"/>
<path d="M187.597 235.775C187.573 235.775 187.549 235.775 187.525 235.775L178.17 234.797C177.795 234.757 177.524 234.421 177.564 234.046C177.604 233.671 177.935 233.395 178.314 233.439L187.668 234.417C188.044 234.457 188.315 234.792 188.275 235.168C188.24 235.519 187.944 235.779 187.597 235.779V235.775Z" fill="#28495C"/>
<path d="M183.077 243.049C181.249 243.049 179.017 242.989 177.32 242.762C176.945 242.71 176.685 242.366 176.733 241.991C176.785 241.616 177.124 241.356 177.504 241.404C180.77 241.843 186.307 241.62 186.363 241.62C186.726 241.604 187.058 241.895 187.074 242.275C187.09 242.65 186.798 242.969 186.419 242.985C186.303 242.989 184.886 243.049 183.077 243.049Z" fill="#28495C"/>
<path d="M127.965 158.308C127.729 161.694 127.274 193.837 129.458 210.878C129.458 210.878 147.772 206.949 147.564 206.466C147.36 205.983 134.808 165.722 131.562 158.252L127.965 158.308Z" fill="#38B8FF"/>
<path d="M122.419 125.702C122.419 125.702 108.969 166.856 130.229 162.848C151.489 158.839 125.542 127.526 122.419 125.702Z" fill="#28495C"/>
<path d="M167.475 221.246L150 222.101C150 222.101 148.395 146.738 146.51 134.613L154.471 110.315L166.105 131.395C166.105 131.395 166.672 215.501 167.475 221.246Z" fill="#FFAB3B"/>
<path d="M167.475 221.246C166.7 215.688 166.141 136.805 166.105 131.658L158.763 141.22L154.208 131.742L150.511 138.042L146.51 134.609C148.395 146.734 150 222.096 150 222.096L167.475 221.242V221.246Z" fill="#FFD83B"/>
<path d="M154.475 110.315L150.942 121.094L159.833 120.032L154.475 110.315Z" fill="#FF863B"/>
<path d="M121.709 221.965C121.709 222.983 132.648 314.323 132.648 314.323H186.331L199.562 221.965H121.709Z" fill="#FF643B"/>
<path d="M112.55 205.176C112.55 205.176 198.8 201.104 207.451 203.14V229.091L112.55 228.329V205.176Z" fill="#FF863B"/>
<path d="M449.249 340.725C447.081 340.434 444.769 341.017 444.594 342.386C444.226 345.305 453.273 345.357 453.249 342.925C453.237 341.728 450.934 340.953 449.249 340.725Z" fill="#28495C"/>
<path d="M426.3 357.498C424.643 357.43 422.906 357.897 422.827 358.739C422.655 360.532 429.53 360.121 429.418 358.639C429.366 357.909 427.586 357.554 426.3 357.498Z" fill="#FF653B"/>
<path d="M474.841 344.933C478.705 344.802 484.706 345.971 483.82 349.772C482.93 353.569 468.221 354.595 466.927 350.16C465.634 345.724 471.834 345.037 474.845 344.933L474.841 344.933Z" fill="#28495C"/>
<path d="M540.713 323.031C539.24 323.007 536.98 322.44 537.395 321.014C537.81 319.589 543.42 319.489 543.827 321.202C544.23 322.915 541.859 323.051 540.713 323.035V323.031Z" fill="#28495C"/>
<path d="M72.8367 324.755C69.9581 324.751 67.0395 325.909 67.0516 327.722C67.0755 331.591 78.8933 330.105 78.4381 326.935C78.2146 325.374 75.0765 324.759 72.8367 324.755Z" fill="#28495C"/>
<path d="M20.9902 342.945C19.2135 342.945 17.4089 343.656 17.4169 344.778C17.4329 347.165 24.7271 346.247 24.4477 344.29C24.3079 343.325 22.3716 342.945 20.9902 342.945Z" fill="#28495C"/>
<path d="M519.84 306.035C511.396 309.364 511.141 317.872 521.034 321.945C530.928 326.021 539.048 320.104 537.388 315.577C535.726 311.049 530.065 302.002 519.84 306.035Z" fill="#D1D3D4"/>
<path d="M536.685 313.92C536.437 316.367 534.956 316.858 533.243 317.01C528.276 317.449 530.037 320.527 523.537 319.681C514.778 318.543 514.295 311.979 514.211 310.71C512.35 314.522 514.43 319.218 521.038 321.941C530.931 326.017 539.052 320.1 537.391 315.572C537.207 315.069 536.972 314.51 536.689 313.92H536.685Z" fill="#BCBEC0"/>
<path d="M169.112 354.811C166.026 354.603 162.764 355.398 162.576 356.967C162.173 360.305 175.017 359.849 174.881 357.087C174.813 355.725 171.511 354.975 169.116 354.815L169.112 354.811Z" fill="#FF643B"/>
<path d="M89.0063 335.296C93.3581 335.695 99.9178 337.859 98.3807 341.991C96.8475 346.123 80.2148 345.185 79.3924 340.031C78.5699 334.876 85.6207 334.988 89.0023 335.296L89.0063 335.296Z" fill="#28495C"/>
<path d="M351.732 51.1858L306.401 51.106L195.53 321.302L270.194 321.434L290.088 228.137L341.288 228.229L372.589 321.613L437.124 319.062L351.732 51.1898V51.1858ZM301.894 188.691L316.642 141.252L336.018 193.55L301.894 188.691Z" fill="#FF643B"/>
<path d="M175.743 318.97C184.702 323.462 198.165 325.458 215.492 318.97C220.818 316.978 229.562 308.789 227.662 303.368C225.765 297.954 218.651 300.094 218.651 300.094C218.651 300.094 239.356 286.938 232.165 277.604C227.538 271.599 218.084 274.306 218.084 274.306C218.084 274.306 250.982 230.656 229.019 217.968C203.735 203.368 184.131 265.695 184.131 265.695C184.131 265.695 188.727 245.141 179.804 243.792C170.88 242.438 141.947 280.566 175.747 318.966L175.743 318.97Z" fill="#38B8FF"/>
<path d="M192.264 318.998C191.002 291.186 199.207 267.547 206.314 252.615C214.015 236.433 222.132 226.688 222.212 226.588L223.106 227.339C223.026 227.434 214.989 237.092 207.352 253.15C200.309 267.954 192.18 291.39 193.43 318.946L192.264 318.998Z" fill="white"/>
<path d="M193.198 304.394L192.919 303.26C206.601 299.89 225.134 281.074 225.318 280.882L226.152 281.7C225.386 282.483 207.2 300.944 193.198 304.394Z" fill="white"/>
<path d="M193.913 314.978C193.51 314.978 193.107 314.97 192.703 314.958L192.743 313.792C204.106 314.199 216.004 308.63 216.123 308.574L216.622 309.628C216.507 309.684 205.176 314.978 193.913 314.978Z" fill="white"/>
<path d="M192.6 309.672C184.012 307.915 177.823 303.655 174.202 297.012C165.235 280.551 174.853 255.398 175.264 254.336L176.35 254.759C176.25 255.015 166.517 280.475 175.224 296.457C178.674 302.785 184.595 306.845 192.827 308.53L192.592 309.672H192.6Z" fill="white"/>
<path d="M184.591 317.274C181.428 320.931 176.889 323.003 165.774 320.14C162.117 319.198 154.268 315.305 156.076 308.554C157.885 301.799 165.415 309.668 165.415 309.668C165.415 309.668 144.055 276.119 159.494 270.753C175.831 265.076 177.48 300.689 177.48 300.689C177.48 300.689 178.937 295.854 182.275 296.509C186.192 297.279 192.691 307.915 184.595 317.274H184.591Z" fill="#ABE2FF"/>
<path d="M175.224 318.18C175.124 318.032 165.139 303.096 161.578 278.842L162.732 278.674C166.253 302.665 176.091 317.381 176.19 317.529L175.224 318.184V318.18Z" fill="white"/>
<path d="M170.673 315.964C164.955 315.964 162.7 313.82 162.588 313.712L163.402 312.878C163.43 312.906 166.325 315.577 173.998 314.571L174.15 315.728C172.869 315.896 171.711 315.968 170.669 315.968L170.673 315.964Z" fill="white"/>
<path d="M174.897 316.687L174.418 315.621C182.798 311.864 181.373 302.122 181.361 302.026L182.514 301.847C182.53 301.954 184.079 312.57 174.897 316.687Z" fill="white"/>
<path d="M169.18 321.022C172.11 318.152 174.494 314.794 178.865 314.794C183.237 314.794 192.033 316.503 193.382 318.336C194.732 320.168 199.902 326.824 193.937 328.963C187.972 331.099 161.139 328.904 169.18 321.022Z" fill="#D1D3D4"/>
<path d="M188.487 322.26C183.876 323.05 181.772 323.829 177.612 323.993C173.452 324.156 171.248 319.757 171.304 318.846C170.601 319.561 169.906 320.308 169.18 321.022C161.139 328.899 187.972 331.099 193.937 328.963C197.43 327.71 197.107 324.911 195.965 322.436C194.62 321.769 193.099 321.473 188.491 322.264L188.487 322.26Z" fill="#BCBEC0"/>
<path d="M195.466 310.247C184.966 321.11 190.747 336.094 208.837 337.268C226.923 338.446 235.056 323.266 229.227 316.367C223.398 309.468 208.178 297.091 195.466 310.247Z" fill="#D1D3D4"/>
<path d="M226.951 313.904C228.352 318.32 228.644 322.6 225.146 323.67C217.293 326.069 218.411 321.853 209.408 325.394C200.405 328.936 191.298 323.941 190.248 321.781C190.168 329.542 196.76 336.485 208.837 337.268C226.923 338.446 235.056 323.266 229.227 316.367C228.58 315.601 227.813 314.766 226.951 313.904Z" fill="#BCBEC0"/>
<path d="M281.48 333.746L279.217 333.183C293.41 275.979 316.866 100.601 317.102 98.8361L319.413 99.1435C319.178 100.908 295.706 276.414 281.48 333.742V333.746Z" fill="#28495C"/>
<path d="M244.298 332.8L242.035 332.237C256.228 275.033 279.684 99.6546 279.919 97.8899L282.231 98.1973C281.995 99.962 258.523 275.468 244.298 332.796V332.8Z" fill="#28495C"/>
<path d="M278.238 120.683L278.055 118.359C287.697 117.593 315.401 116.407 315.68 116.395L315.78 118.723C315.5 118.735 287.84 119.92 278.238 120.683Z" fill="#28495C"/>
<path d="M273.14 154.531L272.956 152.208C282.598 151.441 310.302 150.255 310.582 150.243L310.681 152.571C310.402 152.583 282.742 153.769 273.14 154.531Z" fill="#28495C"/>
<path d="M268.042 188.384L267.858 186.06C277.5 185.294 305.204 184.108 305.483 184.096L305.583 186.423C305.304 186.435 277.644 187.621 268.042 188.384Z" fill="#28495C"/>
<path d="M262.943 222.232L262.76 219.908C272.401 219.142 300.105 217.956 300.385 217.944L300.485 220.272C300.205 220.284 272.545 221.469 262.943 222.232Z" fill="#28495C"/>
<path d="M257.841 256.084L257.657 253.761C267.299 252.994 295.003 251.808 295.282 251.796L295.382 254.124C295.103 254.136 267.443 255.322 257.841 256.084Z" fill="#28495C"/>
<path d="M252.742 289.933L252.559 287.609C262.201 286.843 289.904 285.657 290.184 285.645L290.284 287.973C290.004 287.984 262.344 289.17 252.742 289.933Z" fill="#28495C"/>
<path d="M245.867 322.28L245.684 319.956C255.326 319.19 283.03 318.004 283.309 317.992L283.409 320.32C283.129 320.332 255.469 321.517 245.867 322.28Z" fill="#28495C"/>
<path d="M559.198 214.247C558.296 213.205 552.726 207.819 552.363 207.224C552 206.63 573.719 195.243 573.719 195.243L613.057 190.089L618.738 189.901L599.271 200.062C599.271 200.062 576.086 210.362 575.22 210.834C574.354 211.305 559.198 214.247 559.198 214.247Z" fill="#8AD4FF"/>
<g style="mix-blend-mode:multiply">
<path d="M559.198 214.247C558.296 213.205 552.726 207.819 552.363 207.224C552 206.63 573.719 195.243 573.719 195.243L613.057 190.089L618.738 189.901L599.271 200.062C599.271 200.062 576.086 210.362 575.22 210.834C574.354 211.305 559.198 214.247 559.198 214.247Z" fill="#8AD4FF"/>
</g>
<path d="M547.76 238.062C547.76 238.062 551.561 214.495 552.707 213.501C553.852 212.506 617.429 190.492 618.738 189.901C620.048 189.31 547.76 238.066 547.76 238.066V238.062Z" fill="#8AD4FF"/>
<path d="M552.363 207.22C551.672 207.236 546.119 187.633 547.352 186.747C548.586 185.856 621.916 188.751 618.738 189.897C615.56 191.043 553.441 207.2 552.363 207.22Z" fill="#8AD4FF"/>
<path d="M257.937 67.0599C257.937 65.962 263.865 61.4904 263.007 61.1471C261.809 60.6679 260.3 61.5782 260.3 61.5782C260.3 61.5782 262.8 56.8871 261.925 56.6555C260.831 56.364 260.452 58.3323 260.452 58.3323C260.452 58.3323 261.749 55.3779 261.023 55.2381C260.296 55.1024 258.899 57.7135 258.899 57.7135C258.899 57.7135 259.985 55.6494 259.294 55.4538C258.607 55.2541 257.246 57.989 257.246 57.989C257.246 57.989 258.284 56.4679 257.461 56.4C256.635 56.3321 255.864 58.8234 255.733 59.7776C255.657 60.3406 255.27 62.5604 256.144 64.1095C256.383 64.5287 255.645 67.0639 255.645 67.0639H257.928L257.937 67.0599Z" fill="#F7CD8D"/>
<path d="M280.211 67.6748C279.528 66.8124 272.106 66.9761 272.569 66.1736C273.212 65.0557 274.961 64.8361 274.961 64.8361C274.961 64.8361 270.09 62.7041 270.637 61.9775C271.316 61.0712 272.829 62.3807 272.829 62.3807C272.829 62.3807 269.978 60.8636 270.465 60.3046C270.952 59.7456 273.663 60.9315 273.663 60.9315C273.663 60.9315 271.535 59.9852 271.95 59.4023C272.366 58.8194 275.128 60.125 275.128 60.125C275.128 60.125 273.372 59.574 273.975 59.0111C274.577 58.4481 276.729 59.9213 277.424 60.5921C277.831 60.9874 279.512 62.4885 279.784 64.2452C279.856 64.7244 282.007 66.2575 282.007 66.2575L280.215 67.6748H280.211Z" fill="#F7CD8D"/>
<path d="M274.681 213.884C274.681 213.884 276.45 154.08 273.93 145.409C271.415 136.737 263.81 146.331 263.81 146.331C263.81 146.331 265.422 166.086 265.742 170.138C266.061 174.191 264.213 188.527 271.563 213.78C271.563 213.78 268.445 218.775 269.926 219.685C271.04 220.368 274.921 220.112 275.288 219.485C275.935 218.379 275.32 215.996 274.685 213.888L274.681 213.884Z" fill="#F7D5A0"/>
<path d="M277.14 213.884C277.14 213.884 275.372 154.08 277.891 145.409C280.406 136.737 288.012 146.331 288.012 146.331C288.012 146.331 286.399 166.086 286.08 170.138C285.76 174.191 287.609 188.527 280.258 213.78C280.258 213.78 283.377 218.775 281.895 219.685C280.782 220.368 276.901 220.112 276.533 219.485C275.887 218.379 276.502 215.996 277.136 213.888L277.14 213.884Z" fill="#F7D5A0"/>
<path d="M280.778 88.9348C280.778 89.1824 279.995 97.6784 280.478 98.6087L274.018 97.6145C274.018 97.6145 276.126 89.7373 276.19 88.3759C276.254 87.0104 280.778 88.9348 280.778 88.9348Z" fill="#F7D5A0"/>
<g style="mix-blend-mode:multiply">
<path d="M280.778 88.9349C280.778 89.0148 280.702 89.9131 280.61 91.1347C278.538 91.6657 277.085 91.7376 275.659 91.1228C275.951 89.8652 276.171 88.8032 276.19 88.376C276.19 88.3001 276.214 88.2402 276.246 88.1843C276.793 88.0925 277.34 88.0246 277.791 87.9767C279.117 88.2282 280.782 88.9349 280.782 88.9349H280.778Z" fill="#F7D5A0"/>
</g>
<path d="M281.676 76.3186C283.201 77.5004 287.186 89.5976 279.021 90.6796C270.856 91.7615 270.365 74.7455 275.875 74.7934C281.384 74.8413 281.68 76.3186 281.68 76.3186H281.676Z" fill="#F7D5A0"/>
<path d="M282.299 127.594C282.95 129.734 289.274 135.316 289.553 147.78C289.833 160.245 288.866 168.338 288.866 168.338C288.866 168.338 272.685 171.687 263.011 167.407C263.011 167.407 256.439 144.151 267.602 130.197L282.299 127.594Z" fill="#77C4D3"/>
<path d="M282.299 127.594C282.95 129.734 289.274 135.316 289.553 147.78C289.833 160.245 288.866 168.338 288.866 168.338C288.866 168.338 272.685 171.687 263.011 167.407C263.011 167.407 256.439 144.151 267.602 130.197L282.299 127.594Z" fill="#333745"/>
<path d="M282.299 127.594C282.95 129.734 289.274 135.316 289.553 147.78C289.833 160.245 288.866 168.338 288.866 168.338C288.866 168.338 272.685 171.687 263.011 167.407C263.011 167.407 256.439 144.151 267.602 130.197L282.299 127.594Z" fill="#28495C"/>
<path d="M280.187 63.886C286.052 69.9106 299.694 76.3745 296.943 90.7275C295.155 100.05 289.058 103.42 286.143 108.626C283.229 113.836 282.546 125.802 284.283 130.64C284.283 130.64 274.609 134.03 266.979 130.64C266.979 130.64 270.142 122.392 267.539 116.192C264.935 109.991 263.63 109.927 264.005 107.508C264.377 105.089 265.123 104.406 263.011 100.313C260.903 96.2212 251.353 78.7939 255.258 65.9581C255.258 65.9581 258.36 66.6408 258.979 66.517C258.979 66.517 258.915 93.0591 274.605 96.7801C290.296 100.501 289.821 79.0734 278.358 67.583L280.183 63.882L280.187 63.886Z" fill="#78CEFF"/>
<path d="M283.189 82.9581C283.233 82.7785 282.918 81.2174 284.283 81.3052C285.648 81.393 284.658 85.4455 283.189 84.5391C281.716 83.6289 283.189 82.9621 283.189 82.9621V82.9581Z" fill="#F7D5A0"/>
<path d="M274.913 94.173L272.529 96.1213C272.529 96.1213 273.044 100.281 275.208 101.26L276.685 97.1394L274.913 94.173Z" fill="#AEE2FF"/>
<path d="M280.382 94.716L276.685 97.1394L278.218 101.26C278.218 101.26 280.73 98.2892 281.42 96.84L280.382 94.716Z" fill="#AEE2FF"/>
<path d="M275.344 70.234C269.782 70.4057 265.866 76.8576 267.127 82.7624C268.389 88.6634 266.033 95.0593 264.265 97.7183C262.001 101.124 257.134 108.231 263.087 116.687C266.96 122.184 273.547 119.489 279.049 121.314C286.144 123.67 295.147 121.821 295.151 108.606C295.151 98.6765 290.012 96.7202 289.601 92.6998C288.587 82.7585 291.474 69.7349 275.344 70.23V70.234Z" fill="#28495C"/>
<path d="M275.284 219.485C275.923 218.391 275.328 216.048 274.701 213.956C273.863 213.804 272.569 213.636 271.559 213.784C271.559 213.784 268.441 218.779 269.922 219.689C271.036 220.372 274.917 220.116 275.284 219.489V219.485Z" fill="#28495C"/>
<path d="M281.899 219.685C283.377 218.779 280.263 213.78 280.263 213.78C280.267 213.764 280.271 213.744 280.279 213.728C278.781 213.612 277.771 213.692 277.141 213.804C277.141 213.852 277.141 213.884 277.141 213.884C276.506 215.996 275.895 218.379 276.538 219.481C276.905 220.108 280.786 220.364 281.899 219.681V219.685Z" fill="#28495C"/>
<path d="M266.053 168.565C261.214 149.713 268.162 131.311 268.229 131.127L268.601 131.271C268.529 131.455 261.63 149.744 266.437 168.465L266.049 168.565H266.053Z" fill="white"/>
<path d="M285.688 168.928L285.293 168.865C288.04 152.172 282.163 131.463 282.103 131.255L282.487 131.143C282.546 131.351 288.447 152.144 285.685 168.928H285.688Z" fill="white"/>
<path d="M399.59 307.296C399.59 307.296 380.079 298.704 385.736 292.033C392.759 283.752 408.174 295.814 408.174 295.814C408.174 295.814 366.365 261.662 378.298 249.956C387.705 240.729 407.943 256.272 407.943 256.272C407.943 256.272 345.596 158.628 405.515 132.912C469.255 105.555 472.621 227.163 454.176 247.353C454.176 247.353 477.424 231.97 487.214 239.332C502.433 250.778 476.41 292.021 438.234 307.073L399.59 307.3V307.296Z" fill="#FFAB3B"/>
<path d="M418.371 307.432L417.377 306.949C430.516 280.023 428.828 241.18 425.099 213.337C421.05 183.13 413.796 159.007 413.724 158.767L414.782 158.448C414.854 158.687 422.136 182.898 426.196 213.193C428.58 230.996 429.406 247.389 428.644 261.917C427.689 280.111 424.236 295.426 418.375 307.44L418.371 307.432Z" fill="white"/>
<path d="M427.897 246.626C412.239 229.179 407.108 199.199 407.056 198.9L408.146 198.72C408.194 199.02 413.281 228.684 428.72 245.888L427.897 246.626Z" fill="white"/>
<path d="M426.464 280.746L425.737 279.912C438.126 269.148 441.38 248.846 441.927 233.707C442.521 217.246 440.13 203.176 440.106 203.036L441.196 202.849C441.22 202.988 443.631 217.174 443.033 233.747C442.478 249.102 439.156 269.723 426.464 280.746Z" fill="white"/>
<path d="M422.883 293.941C406.693 286.507 395.945 267.611 395.837 267.423L396.8 266.88C396.903 267.068 407.48 285.653 423.342 292.935L422.879 293.941H422.883Z" fill="white"/>
<path d="M420.791 301.208L420.583 300.122C448.678 294.792 466.856 262.772 467.036 262.448L468.002 262.987C467.958 263.071 463.339 271.272 455.266 280.027C447.8 288.124 435.755 298.369 420.791 301.208Z" fill="white"/>
<path d="M419.018 305.096C406.226 303.176 400.688 299.487 400.461 299.331L401.084 298.417C401.14 298.453 406.677 302.126 419.182 304.006L419.018 305.1V305.096Z" fill="white"/>
<path d="M440.446 294.005C456.06 300.161 456.531 315.892 438.242 323.426C419.948 330.96 404.928 320.024 408.003 311.648C411.077 303.276 421.541 286.547 440.446 294.005Z" fill="#D1D3D4"/>
<path d="M409.304 308.594C409.759 313.121 411.304 317.13 415.404 316.854C424.603 316.235 421.617 312.79 432.509 312.802C443.4 312.814 450.706 305.008 450.862 302.661C454.303 309.711 450.455 318.395 438.242 323.43C419.948 330.964 404.928 320.028 408.003 311.652C408.346 310.722 408.777 309.688 409.304 308.594Z" fill="#BCBEC0"/>
<path d="M352.638 268.597C352.742 270.031 353.796 274.881 352.678 276.878C351.561 278.874 345.987 280.127 345.987 280.127L352.108 287.697L364.608 287.565L369.387 281.621L367.044 279.512C367.044 279.512 360.923 280.299 362.129 268.365C363.334 256.436 352.638 268.593 352.638 268.593V268.597Z" fill="#F7D5A0"/>
<path d="M348.478 278.63C348.478 278.63 338.689 281.181 329.155 289.837C319.62 298.493 309.244 324.284 340.721 309.7L342.957 305.631L343.42 300.453L367.582 305.208L374.378 311.748L377.843 311.632C377.843 311.632 389.437 309.213 390.799 301.879C392.16 294.544 370.832 279.848 367.039 278.986C367.039 278.986 363.538 280.411 357.19 280.658C350.842 280.91 348.478 278.63 348.478 278.63Z" fill="#78CEFF"/>
<path d="M372.142 313.513L373.376 320.855L359.889 328.105L347.528 327.714L337.535 323.031C337.535 323.031 341.487 318.555 342.917 311.001C344.346 303.448 372.142 313.513 372.142 313.513Z" fill="#78CEFF"/>
<g style="mix-blend-mode:multiply">
<path d="M352.73 269.404C352.87 270.414 353.102 271.919 353.165 273.376C355.853 274.207 359.246 274.486 362.209 274.278C361.945 272.777 361.877 270.849 362.129 268.37C362.201 267.655 362.229 267.028 362.221 266.477L353.772 268.385L352.73 269.4V269.404Z" fill="#F7D5A0"/>
</g>
<path d="M363.925 268.701C364.88 269.064 370.134 262.988 370.282 253.358C370.429 243.728 363.135 244.319 363.135 244.319C363.135 244.319 356.99 242.993 356.787 243.065C356.583 243.133 346.762 245.724 346.762 245.724C346.762 245.724 340.988 264.736 352.798 267.315L354.815 259.155L364.404 254.599C364.404 254.599 363.614 268.002 363.77 268.354L363.925 268.705V268.701Z" fill="#28495C"/>
<path d="M350.219 249.892C349.752 250.327 346.845 253.058 346.65 259.263C346.454 265.467 350.503 273.049 357.513 272.705C364.524 272.362 369.068 264.377 368.241 254.867C367.415 245.357 359.889 247.6 359.889 247.6L350.219 249.892Z" fill="#F7D5A0"/>
<path d="M366.916 259.794C366.916 259.794 367.047 259.758 367.275 259.718C367.87 259.61 369.116 259.462 370.302 259.826C371.942 260.329 368.736 266.401 366.477 264.07C364.217 261.738 366.912 259.794 366.912 259.794H366.916Z" fill="#F7D5A0"/>
<path d="M347.947 259.191C347.947 259.191 347.816 259.147 347.596 259.091C347.009 258.943 345.775 258.72 344.566 259.007C342.897 259.406 345.712 265.667 348.111 263.487C350.515 261.303 347.947 259.191 347.947 259.191Z" fill="#F7D5A0"/>
<path d="M354.435 240.167C351.237 239.376 344.901 242.083 346.913 248.271C349.173 255.222 363.211 255.797 367.914 252.032C372.621 248.263 371.1 244.426 369.155 243.923C367.215 243.42 364.225 244.019 361.785 243.249C359.346 242.478 356.439 240.661 354.431 240.167H354.435Z" fill="#28495C"/>
<path d="M334.401 289.202C334.401 289.202 381.895 290.248 382.071 290.719C382.43 291.698 377.755 321.801 377.52 321.881C377.404 321.921 336.868 321.066 336.533 320.803C335.874 320.288 333.906 289.522 334.401 289.202Z" fill="#FF7A3B"/>
<path d="M359.478 305.699C359.53 304.086 358.264 302.741 356.651 302.689C355.038 302.637 353.693 303.903 353.641 305.516C353.589 307.128 354.854 308.474 356.467 308.526C358.08 308.578 359.426 307.312 359.478 305.699Z" fill="white"/>
<path d="M378.454 320.815L335.623 319.457C335.024 319.437 334.525 319.909 334.505 320.508C334.485 321.107 334.956 321.605 335.555 321.625L378.386 322.983C378.985 323.003 379.484 322.532 379.504 321.933C379.524 321.334 379.053 320.835 378.454 320.815Z" fill="#FF653B"/>
<path d="M346.881 330.848C346.881 330.848 344.059 332.381 345.029 335.164C345.999 337.947 353.441 337.156 356.324 330.576C359.202 323.997 346.881 330.848 346.881 330.848Z" fill="#001618"/>
<path d="M355.928 331.391L355.17 331.367C355.17 331.367 351.708 335.372 349.465 335.907C347.48 336.382 345.476 335.216 344.853 333.687C344.805 334.13 344.849 334.625 345.037 335.164C345.967 337.827 352.822 337.216 355.932 331.391H355.928Z" fill="#99A2A3"/>
<path d="M389.09 334.142C389.09 334.142 408.282 328.341 400.984 317.489C393.685 306.638 355.433 325.869 355.433 325.869L368.501 334.114L381.636 335.048L389.09 334.146V334.142Z" fill="#1E3745"/>
<path d="M360.779 327.566L364.412 329.81L364.297 333.255L359.669 332.05L360.779 327.566Z" fill="#F7D5A0"/>
<path d="M361.534 327.315C361.534 327.315 342.945 316.675 329.406 316.419C315.868 316.164 314.095 322.252 313.372 325.446C312.65 328.644 317.321 335.471 330.692 335.076C344.063 334.681 360.456 332.529 360.456 332.529L361.534 327.311V327.315Z" fill="#28495C"/>
<path d="M364.412 329.81C364.412 329.81 364.508 331.591 363.825 333.052C363.825 333.052 368.864 337.092 373.894 337.495C378.925 337.899 381.923 331.319 375.396 330.101C368.868 328.884 364.412 329.81 364.412 329.81Z" fill="#001618"/>
<path d="M375.711 330.165C376.015 330.241 379.333 331.491 377.544 334.908C376.478 336.945 373.951 337.268 372.074 337.2C372.677 337.344 373.288 337.444 373.895 337.495C378.841 337.891 381.824 331.535 375.707 330.165H375.711Z" fill="#99A2A3"/>
<path d="M346.586 279.241C346.586 279.241 352.371 275.6 352.974 276.103C353.581 276.606 357.19 280.658 357.19 280.658C357.19 280.658 354.535 284.611 353.589 285.892C353.589 285.892 348.686 281.457 346.586 279.241Z" fill="#AEE2FF"/>
<path d="M362.784 276.37L357.19 280.654L360.4 285.853C360.4 285.853 365.678 282.702 367.039 278.982L362.784 276.37Z" fill="#AEE2FF"/>
<path d="M437.176 162.113C440.309 156.564 443.743 148.563 450.255 146.259C451.948 145.66 454.136 145.764 455.441 147.197C456.923 148.826 455.338 151.864 454.627 153.633C453.285 156.971 451.517 160.117 449.804 163.275C448.055 166.505 446.35 169.767 444.482 172.929C443.512 174.574 442.494 176.195 441.367 177.736C440.597 178.794 439.91 179.377 438.489 179.173C437.351 179.009 436.062 178.742 435.148 177.995C433.079 176.299 434.836 174.079 435.79 172.298C436.641 170.713 437.487 169.124 438.341 167.543C440.134 164.221 441.967 160.911 444.031 157.749C445.089 156.124 446.171 154.356 447.568 152.998C448.111 152.471 450.758 150.435 450.93 152.415C451.009 153.346 450.231 154.683 449.892 155.534C448.327 159.45 446.45 163.231 444.314 166.864C443.891 167.587 445.061 168.146 445.48 167.431C448.011 163.119 450.367 158.532 451.944 153.769C452.307 152.675 452.539 151.166 451.381 150.459C450.019 149.633 448.099 150.806 447.073 151.693C445.508 153.042 444.366 154.903 443.236 156.608C441.851 158.704 440.565 160.86 439.332 163.047C438.11 165.215 436.936 167.411 435.762 169.603C435.191 170.665 434.625 171.727 434.054 172.789C433.518 173.787 432.816 174.817 432.796 175.987C432.776 177.488 433.79 178.758 435.044 179.473C436.381 180.235 438.868 180.99 440.382 180.439C442.075 179.824 443.18 177.428 444.095 176.007C445.428 173.939 446.634 171.795 447.816 169.639C450.219 165.243 452.766 160.872 454.862 156.32C455.848 154.18 456.727 151.952 457.27 149.653C457.737 147.676 457.122 146.674 455.421 145.58C451.505 143.061 447.125 145.984 444.326 148.838C440.777 152.455 438.473 157.175 436.002 161.546C435.591 162.273 436.756 162.836 437.168 162.113L437.176 162.113Z" fill="#28495C"/>
<path d="M510.621 41.5639H510.613L451.948 41.4601C449.748 41.4561 447.963 39.6674 447.967 37.4676C447.967 35.2677 449.756 33.4871 451.952 33.4871H451.96L510.625 33.5909C512.825 33.5949 514.61 35.3835 514.606 37.5834C514.606 39.7832 512.817 41.5639 510.621 41.5639Z" fill="#28495C"/>
<path d="M514.391 323.162H514.383L466.385 323.078C464.185 323.074 462.401 321.286 462.404 319.086C462.404 316.886 464.193 315.105 466.389 315.105H466.397L514.395 315.189C516.595 315.193 518.379 316.982 518.375 319.182C518.375 321.382 516.587 323.162 514.391 323.162Z" fill="#28495C"/>
<path d="M485.058 323.111C482.882 323.111 481.101 321.362 481.073 319.178L477.3 37.5834C477.272 35.3795 479.033 33.5749 481.233 33.543H481.285C483.461 33.543 485.241 35.2917 485.269 37.4756L489.042 319.07C489.07 321.27 487.31 323.079 485.109 323.111H485.054H485.058Z" fill="#28495C"/>
<path d="M508.05 233.519C508.05 233.519 533.49 250.367 534.732 255.526C535.974 260.68 529.159 265.706 524.707 267.451C512.75 272.142 500.648 273.691 500.648 273.691L502.173 268.242C502.173 268.242 516.367 258.951 515.736 256.603C515.105 254.256 502.792 249.177 502.792 249.177C502.792 249.177 501.075 243.157 501.016 242.578C500.956 241.999 506.825 233.643 506.825 233.643L508.05 233.519Z" fill="#FF4F3B"/>
<path d="M495.003 314.483C495.119 315.285 495.478 320.719 493.498 324.396L494.164 326.5C494.164 326.5 497.961 326.668 498.061 326.66C498.157 326.652 499.61 325.977 499.61 325.977C499.61 325.977 499.015 319.685 499.61 313.656L494.999 314.483H495.003Z" fill="#F7D5A0"/>
<path d="M493.502 324.396C493.502 324.396 495.075 326.117 499.614 325.977C499.614 325.977 510.725 330.409 512.003 330.976C513.276 331.543 513.692 333.303 513.021 334.042C512.35 334.781 495.514 333.12 491.649 329.139C491.649 329.139 491.833 326.309 493.502 324.396Z" fill="#2582B5"/>
<path d="M493.565 270.086C493.565 270.086 492.687 270.218 491.118 269.966C491.118 269.966 489.129 272.234 489.118 272.322C489.106 272.41 490.224 274.881 490.224 274.881L491.489 276.231C491.489 276.231 492.974 275.017 494.755 274.378L493.561 270.086H493.565Z" fill="#F7D5A0"/>
<path d="M491.593 269.918C491.593 269.918 490.292 271.855 491.494 276.231C491.494 276.231 489.805 288.072 489.553 289.446C489.302 290.819 487.689 291.634 486.814 291.158C485.94 290.683 483.589 273.927 486.547 269.236C486.547 269.236 489.342 268.749 491.593 269.918Z" fill="#2582B5"/>
<path d="M507.643 234.018C506.913 235.144 505.998 272.043 506.473 278.431C506.948 284.815 500.065 315.94 500.065 315.94L494.855 315.601C494.855 315.601 491.633 294.109 495.709 278.566C495.709 278.566 486.611 254.799 486.395 246.259L487.621 241.66L488.962 235.176L500.173 233.431L507.643 234.022L507.643 234.018Z" fill="#FF653B"/>
<path d="M522.595 203.771C522.267 203.543 521.393 203.068 520.626 203.667C519.86 204.266 521.086 205.955 522.587 205.859V203.771H522.595Z" fill="#F7D5A0"/>
<g style="mix-blend-mode:multiply">
<path d="M522.595 203.771C522.267 203.543 521.393 203.068 520.626 203.667C519.86 204.266 521.086 205.955 522.587 205.859V203.771H522.595Z" fill="#F7D5A0"/>
</g>
<path d="M527.414 206.194C527.402 206.066 528.499 198.585 528.156 198.425C527.813 198.265 523.581 197.682 522.754 197.898C521.928 198.113 521.836 207.412 521.836 207.412L526.024 206.989L527.41 206.194H527.414Z" fill="#0E3144"/>
<path d="M493.993 186.196C494.156 186.383 494.408 190.719 492.887 193.306L492.064 195.91C492.064 195.91 494.615 198.345 494.715 198.465C494.815 198.585 498.592 199.399 498.592 199.399L501.043 196.999L501.159 195.554C501.159 195.554 499.989 193.023 500.988 189.573L493.996 186.196L493.993 186.196Z" fill="#F7D5A0"/>
<path d="M510.334 198.581C510.853 198.397 513.045 210.303 512.781 215.022L510.142 217.289L507.172 217.589L504.353 216.786C504.353 216.786 507.016 199.738 510.33 198.577L510.334 198.581Z" fill="#54C1FF"/>
<path d="M525.9 211.955C525.992 212.858 517.464 229.067 508.266 231.782L504.465 230.321L504.644 225.674L506.098 222.875L508.873 219.366L513.185 219.896C513.185 219.896 521.497 213.576 522.639 211.548L523.964 210.458L525.897 211.955H525.9Z" fill="#F7D5A0"/>
<path d="M529.131 205.196C528.895 204.625 525.43 205.136 523.393 206.039C521.353 206.941 519.968 207.819 520.251 208.486C520.535 209.153 522.359 208.27 522.359 208.27C522.359 208.27 519.98 208.817 519.932 210.039C519.88 211.261 522.036 210.207 522.036 210.207C522.036 210.207 520.195 211.36 520.89 211.768C521.585 212.175 526.04 212.854 527.742 211.596C529.438 210.338 529.598 206.322 529.135 205.196H529.131Z" fill="#F7D5A0"/>
<path d="M499.263 199.886C499.263 199.886 500.944 209.724 500.025 213.533L497.283 213.812C497.283 213.812 497.45 205.116 496.368 201.507L498.592 199.399L499.259 199.886H499.263Z" fill="#78CEFF"/>
<path d="M513.189 219.893C513.189 219.893 513.775 214.096 513.536 213.904C513.3 213.712 508.178 214.231 506.018 216.056C505.615 218.304 505.65 220.575 506.102 222.871C506.102 222.871 511.176 220.184 513.189 219.893Z" fill="#30B4FF"/>
<path d="M513.021 334.042C512.35 334.781 495.514 333.12 491.649 329.143C491.649 329.143 491.677 328.732 491.801 328.117C498.88 331.842 510.61 333.1 513.333 333.172C513.321 333.511 513.217 333.822 513.021 334.042Z" fill="#1C6288"/>
<path d="M487.904 269.136C486.751 271.867 486.024 280.091 487.705 291.266C487.381 291.326 487.066 291.298 486.814 291.162C485.94 290.687 483.589 273.931 486.547 269.24C486.547 269.24 487.098 269.144 487.904 269.14V269.136Z" fill="#1C6288"/>
<g style="mix-blend-mode:multiply">
<path d="M500.596 192.875C499.079 193.634 496.56 194.345 493.849 190.56C494.26 188.42 494.105 186.324 493.993 186.196L500.984 189.574C500.624 190.819 500.544 191.945 500.592 192.875H500.596Z" fill="#F7D5A0"/>
</g>
<path d="M509.384 173.771C509.384 173.771 512.147 180.882 509.64 187.003L507.292 186.587C507.292 186.587 504.042 197.826 493.997 186.196L491.933 179.537L499.115 174.071L509.388 173.767L509.384 173.771Z" fill="#F7D5A0"/>
<path d="M510.621 179.58C510.621 179.58 514.618 176.215 511.707 170.685C508.801 165.155 498.105 165.874 494.42 170.25C494.42 170.25 491.829 169.212 490.24 172.374C488.647 175.536 488.659 185.441 493.997 186.204C493.997 186.204 493.829 182.395 495.298 180.594L497.526 179.097C497.526 179.097 504.976 180.207 509.651 174.546C509.651 174.546 510.518 177.396 510.629 179.584L510.621 179.58Z" fill="#154965"/>
<path d="M497.789 180.335C497.758 180.036 497.666 177.564 495.39 178.099C493.114 178.634 494.639 184 495.953 183.649C497.267 183.297 497.789 180.331 497.789 180.331V180.335Z" fill="#F7D5A0"/>
<path d="M497.953 314.527L497.63 314.503C497.75 313.002 498.939 307.133 500.321 300.337C502.249 290.827 504.649 278.989 504.313 277.868C503.731 275.927 500.948 238.37 500.828 236.769L501.151 236.745C501.179 237.136 504.05 275.867 504.625 277.772C504.984 278.969 502.677 290.352 500.64 300.397C499.263 307.185 498.077 313.045 497.957 314.527H497.953Z" fill="white"/>
<path d="M502.002 311.748L500.273 317.282C500.273 317.282 495.258 317.11 494.22 316.503L493.873 311.748H502.002Z" fill="#FF5121"/>
<path d="M479.652 197.778C479.652 197.778 468.249 207.915 466.217 221.741L471.431 220.431L475.232 220.611C475.232 220.611 480.75 212.446 481.301 211.432C481.301 211.432 484.131 202.928 479.656 197.778H479.652Z" fill="#78CEFF"/>
<path d="M500.592 192.787L510.33 198.581C510.33 198.581 505.447 213.117 506.05 221.27C506.653 229.423 509.3 233.655 508.828 234.158C508.357 234.661 493.973 241.336 486.367 239.631L484.219 236.457C484.219 236.457 484.171 226.943 484.374 226.4C484.578 225.857 480.522 213.489 480.202 210.981C479.883 208.474 479.647 197.782 479.647 197.782L492.364 193.318C492.364 193.318 493.609 198.537 498.588 199.403C498.588 199.403 501.826 196.033 500.588 192.787H500.592Z" fill="#78CEFF"/>
<path d="M467.127 220.871C467.127 220.871 465.574 224.851 465.786 225.658C465.997 226.46 478.095 235.579 485.253 239.332C485.253 239.332 484.619 243.744 486.391 246.259C486.391 246.259 490.339 244.902 492.675 243.101C492.675 243.101 491.589 240.558 491.805 240.538C492.02 240.518 493.665 241.74 494.843 242.231C496.021 242.722 497.338 241.544 495.662 240.454C493.985 239.364 491.358 237.456 489.777 237.268C488.192 237.08 487.158 237.144 487.158 237.144C487.158 237.144 475.591 225.103 473.767 222.116L470.389 219.677L467.119 220.879L467.127 220.871Z" fill="#F7D5A0"/>
<path d="M478.793 217.285C478.793 217.285 470.636 214.658 466.181 216.02L465.534 223.194L474.302 222.871L478.797 217.285H478.793Z" fill="#A1DDFF"/>
<path d="M504.242 236.35C499.61 231.838 498.477 200.729 498.432 199.407L498.756 199.395C498.768 199.718 499.93 231.694 504.469 236.118L504.242 236.35Z" fill="white"/>
<path d="M493.709 191.202C493.706 191.171 489.537 193.694 489.529 193.909C489.517 194.129 492.093 200.972 497.53 202.605L498.596 199.399C498.596 199.399 494.177 194.907 493.714 191.198L493.709 191.202Z" fill="#A1DDFF"/>
<path d="M500.612 191.638C500.612 191.638 500.54 196.517 498.592 199.403L499.933 202.366C499.933 202.366 503.674 198.669 502.453 193.897L500.608 191.638H500.612Z" fill="#A1DDFF"/>
<path d="M496.488 207.5C496.328 207.5 496.185 207.452 496.069 207.356C495.813 207.153 495.742 206.793 495.881 206.402C495.997 206.067 496.284 205.711 496.632 205.711C496.731 205.711 496.827 205.743 496.911 205.803C497.502 206.218 497.438 206.669 497.382 206.845C497.267 207.212 496.875 207.5 496.488 207.5ZM496.628 206.035C496.476 206.035 496.276 206.25 496.185 206.51C496.153 206.605 496.057 206.933 496.272 207.101C496.332 207.149 496.404 207.172 496.488 207.172C496.731 207.172 496.999 206.977 497.075 206.745C497.147 206.51 497.027 206.278 496.728 206.067C496.696 206.047 496.664 206.035 496.632 206.035H496.628Z" fill="white"/>
<path d="M497.29 217.752C497.131 217.752 496.987 217.705 496.871 217.609C496.616 217.405 496.544 217.046 496.684 216.655C496.799 216.319 497.087 215.964 497.434 215.964C497.534 215.964 497.63 215.996 497.714 216.056C498.305 216.471 498.24 216.922 498.185 217.098C498.069 217.465 497.678 217.752 497.29 217.752ZM497.43 216.287C497.278 216.287 497.079 216.499 496.987 216.762C496.955 216.858 496.859 217.186 497.071 217.357C497.131 217.405 497.202 217.429 497.29 217.429C497.534 217.429 497.802 217.233 497.873 217.002C497.949 216.766 497.825 216.535 497.526 216.323C497.494 216.303 497.462 216.291 497.43 216.291V216.287Z" fill="white"/>
<path d="M499.107 228.9C498.947 228.9 498.804 228.852 498.688 228.756C498.432 228.552 498.36 228.193 498.5 227.802C498.616 227.466 498.903 227.111 499.251 227.111C499.351 227.111 499.446 227.143 499.53 227.203C500.121 227.618 500.057 228.069 500.001 228.245C499.885 228.612 499.494 228.9 499.107 228.9ZM499.247 227.434C499.095 227.434 498.895 227.646 498.804 227.91C498.772 228.005 498.676 228.333 498.887 228.5C498.947 228.548 499.019 228.572 499.103 228.572C499.346 228.572 499.614 228.377 499.686 228.145C499.762 227.91 499.638 227.678 499.339 227.466C499.307 227.446 499.279 227.434 499.243 227.434H499.247Z" fill="white"/>
<path d="M440.278 314.175C434.992 319.39 437.527 325.873 446.279 325.765C455.03 325.662 459.246 318.603 456.543 315.728C453.84 312.854 446.682 307.859 440.278 314.175Z" fill="#D1D3D4"/>
<path d="M455.481 314.71C456.08 316.631 456.148 318.531 454.431 319.13C450.578 320.475 451.197 318.555 446.77 320.448C442.338 322.34 438.014 320.431 437.543 319.505C437.363 322.971 440.437 325.837 446.279 325.77C455.03 325.666 459.246 318.607 456.543 315.732C456.244 315.413 455.889 315.066 455.485 314.714L455.481 314.71Z" fill="#BCBEC0"/>
<path d="M50.7462 294.872L49.4766 297.778L51.3011 299.351H52.455L54.2077 296.349L50.7462 294.872Z" fill="#F7D5A0"/>
<path d="M49.4766 297.778C49.4766 297.778 47.6521 298.565 46.9135 302.306C46.9135 302.306 49.824 304.985 54.7188 306.877C59.6136 308.769 63.9095 307.987 63.9095 307.152C63.9095 306.318 63.634 304.937 58.831 303.412C54.0281 301.886 52.9661 300.317 52.459 299.347C52.459 299.347 50.9818 299.207 49.4806 297.778H49.4766Z" fill="#2582B5"/>
<path d="M91.4576 299.671L93.0187 303.36L96.1887 301.839L94.3203 297.111L91.4576 299.671Z" fill="#F7D5A0"/>
<path d="M61.0548 233.671C61.0548 237.863 60.2843 279.609 48.9935 294.92C48.9935 294.92 51.3052 297.399 55.0262 298.513C55.0262 298.513 75.5156 261.642 75.5156 247.357C75.5156 233.072 61.0588 233.671 61.0588 233.671H61.0548Z" fill="#3C6D8A"/>
<path d="M61.0548 233.671C61.0548 237.863 60.2843 279.609 48.9935 294.92C48.9935 294.92 51.3052 297.399 55.0262 298.513C55.0262 298.513 75.5156 261.642 75.5156 247.357C75.5156 233.072 61.0588 233.671 61.0588 233.671H61.0548Z" fill="#1E3745"/>
<path d="M95.9133 301.144C95.9133 301.144 93.953 302.298 92.5116 302.154C92.5116 302.154 92.1084 304.873 93.8252 306.869C93.8252 306.869 100.832 308.706 110.119 304.489C110.119 304.489 110.338 302.837 107.647 302.401C104.956 301.966 101.024 303.962 95.9173 301.14L95.9133 301.144Z" fill="#2582B5"/>
<path d="M60.1446 223.861C59.3341 225.35 57.8648 235.268 63.3385 244.961C68.8123 254.655 83.1812 266.062 83.5845 268.002C83.9837 269.942 89.4614 296.177 90.5993 299.826C90.5993 299.826 95.1627 300.17 97.2149 297.774C97.2149 297.774 93.9091 274.506 93.2224 263.898C93.2224 263.898 79.4203 233.215 76.5697 227.283C73.719 221.35 60.1446 223.861 60.1446 223.861Z" fill="#28495C"/>
<path d="M76.8531 181.633C76.8531 181.633 76.0266 186.104 73.5473 187.985C71.068 189.865 58.6633 190.895 59.346 226.137C59.346 226.137 75.9428 237.088 80.9893 235.891C80.9893 235.891 83.8998 224.656 84.5665 216.327C84.5665 216.327 97.5542 221.462 105.994 222.26L109.072 217.813C109.072 217.813 110.15 218.148 112.546 218.919L112.582 216.367C112.582 216.367 87.4611 202.873 78.8773 191.666C78.8773 191.666 80.3864 187.989 81.8397 185.933C83.2929 183.876 77.4759 181.664 77.4759 181.664L76.8491 181.633H76.8531Z" fill="#78CEFF"/>
<path d="M73.707 187.857C76.0625 185.909 76.8531 181.633 76.8531 181.633L77.4799 181.664C77.4799 181.664 83.297 183.876 81.8437 185.933C80.3905 187.989 78.8813 191.666 78.8813 191.666C77.3003 192.476 75.0485 191.151 73.707 187.857Z" fill="#F7D5A0"/>
<g style="mix-blend-mode:multiply">
<path d="M80.4903 188.216C78.9692 187.386 77.2644 185.545 76.406 183.314C76.7214 182.343 76.8531 181.633 76.8531 181.633L77.48 181.665C77.48 181.665 78.2865 181.972 79.2287 182.463L79.6479 183.449L81.5403 186.38C81.177 186.939 80.8217 187.578 80.4903 188.212V188.216Z" fill="#F7D5A0"/>
</g>
<path d="M90.1601 168.561C90.1441 169.763 92.0326 175.652 90.9826 182.651L88.8865 182.004C88.8865 182.004 81.9076 197.495 76.0666 179.668C70.2256 161.842 86.1596 167.595 86.1596 167.595L90.1561 168.561H90.1601Z" fill="#F7D5A0"/>
<path d="M86.2594 164.932C87.4931 165.287 92.9788 161.111 94.7994 164.433C96.6199 167.755 95.8055 175.772 86.7146 172.705C77.6237 169.639 76.921 182.072 76.6495 181.325C76.6495 181.325 72.8167 181.257 73.4395 172.853C74.0623 164.445 78.5898 162.724 86.2594 164.932Z" fill="#28495C"/>
<path d="M80.4743 175.895C79.3205 174.63 78.4302 173.16 76.8132 174.825C75.1963 176.49 77.6197 179.836 78.8614 179.077C80.1031 178.319 80.4743 175.899 80.4743 175.899V175.895Z" fill="#F7D5A0"/>
<path d="M74.4496 187.11C74.4496 187.11 74.3658 189.49 78.8813 191.666L79.8954 194.748C79.8954 194.748 75.4717 194.592 72.4973 188.575L74.4496 187.11Z" fill="#AEE2FF"/>
<path d="M79.3564 190.564L81.3367 194.476L78.8813 191.666L79.3564 190.564Z" fill="#AEE2FF"/>
<path d="M109.077 217.812C109.077 217.812 112.949 219.01 114.466 219.194C116.531 219.441 119.557 219.194 119.689 219.725C119.82 220.256 117.86 220.392 117.86 220.392C117.86 220.392 120.455 220.224 120.487 220.959C120.519 221.689 117.892 221.689 117.892 221.689C117.892 221.689 120.236 221.593 120.056 222.42C119.856 223.33 115.297 222.819 115.297 222.819C115.297 222.819 118.423 223.717 117.992 224.248C117.561 224.779 112.171 224.68 109.975 223.849C108.158 223.163 106.637 221.334 106.637 221.334L109.077 217.812Z" fill="#F7D5A0"/>
<path d="M110.119 304.494C110.119 304.494 110.174 304.038 109.843 303.547C107.208 305.132 95.1108 306.697 93.2303 306.019C93.394 306.31 93.5856 306.602 93.8212 306.877C93.8212 306.877 100.828 308.714 110.115 304.498L110.119 304.494Z" fill="#1C6287"/>
<path d="M54.7148 306.877C59.6095 308.769 63.9054 307.987 63.9054 307.153C63.9054 307.057 63.9015 306.957 63.8895 306.849C54.7746 308.382 47.1769 301.359 47.2009 301.148C47.0931 301.499 46.9933 301.882 46.9094 302.306C46.9094 302.306 49.8199 304.985 54.7148 306.877Z" fill="#1C6287"/>
</svg>
