<svg width="137" height="137" viewBox="0 0 137 137" fill="none" xmlns="http://www.w3.org/2000/svg">
<path fill-rule="evenodd" clip-rule="evenodd" d="M111.786 44.1724V25.5019H93.1198L68.4913 0.873413L43.8629 25.5047H25.1982V44.1732L0.569824 68.8052L25.1982 93.4372V112.107H43.8667L68.4913 136.737L93.1198 112.105H111.786V93.4357L136.414 68.804L111.786 44.1724ZM68.4913 122.312L14.9968 68.804L22.7197 61.0798H33.9244L58.0486 104.086L89.7672 48.0228H49.8657L58.7516 67.0746L62.9352 59.5541H71.4854L57.7856 81.3821L41.3152 48.0228H35.7761L68.493 15.2993L101.211 48.0228H95.0133L71.6082 91.1223L78.3841 104.086L103.245 59.2469H112.435L121.991 68.804L68.4913 122.312Z" fill="white"/>
</svg>
